<?xml version="1.0" encoding="UTF-8" standalone="no"?>
<!-- Created with Inkscape (http://www.inkscape.org/) -->

<svg
   width="48.650883mm"
   height="24.423084mm"
   viewBox="0 0 48.650883 24.423084"
   version="1.1"
   id="svg1"
   xmlns="http://www.w3.org/2000/svg"
   xmlns:svg="http://www.w3.org/2000/svg">
  <defs
     id="defs1" />
  <g
     id="layer1"
     transform="translate(-121.75682,-79.538273)">
    <path
       style="-inkscape-font-specification:'Geometos Rounded';fill:#02ca69;fill-opacity:1"
       d="m 142.78247,63.686064 c 0.0293,0.352768 0.12446,1.015823 0.43356,1.723388 0.0584,0.133592 0.1646,0.345339 0.23859,0.471314 0.59476,1.01254 1.77095,2.025987 3.61566,2.191487 0.14538,0.01304 0.38209,0.02301 0.5282,0.02329 0.0274,5.3e-5 0.0549,-4.6e-5 0.0824,-2.97e-4 0.1461,-0.0013 0.38289,-0.01247 0.52829,-0.02685 1.76653,-0.174745 2.89197,-1.19834 3.45629,-2.205052 0.0713,-0.127267 0.1734,-0.341159 0.22941,-0.476104 0.29031,-0.699384 0.38076,-1.351359 0.40889,-1.699807 0.0117,-0.145305 -0.10579,-0.263783 -0.25191,-0.263945 l -1.27163,-0.0014 c -0.14612,-1.62e-4 -0.26817,0.118326 -0.28566,0.263344 -0.0269,0.223219 -0.088,0.563846 -0.2265,0.925449 -0.0521,0.136111 -0.15378,0.350233 -0.22527,0.477644 -0.32185,0.573565 -0.8198,1.064628 -1.92164,1.18213 -0.14525,0.01549 -0.38215,0.0244 -0.52828,0.02364 -0.0988,-5.12e-4 -0.29727,-0.0077 -0.44272,-0.02151 -1.20258,-0.114108 -1.74442,-0.620636 -2.08636,-1.198668 -0.0744,-0.125722 -0.18042,-0.33802 -0.23504,-0.47351 -0.14439,-0.358201 -0.20818,-0.694857 -0.23632,-0.915945 -0.0184,-0.144524 -0.14056,-0.262861 -0.28668,-0.262853 l -1.27162,6.6e-5 c -0.14612,8e-6 -0.26372,0.118621 -0.25164,0.264203 z"
       id="path9-3"
       transform="translate(-0.01499643,31.739572)" />
    <path
       style="font-size:12.7px;line-height:0.8;font-family:'Geometos Rounded';-inkscape-font-specification:'Geometos Rounded';text-align:end;letter-spacing:0px;word-spacing:0px;text-anchor:end;fill:#006ff2;fill-opacity:1;stroke:#000000;stroke-width:0;stroke-dasharray:none"
       d="m 165.3404,86.706747 v 1.5367 c 0,0.110067 0.0381,0.2032 0.1143,0.2794 0.0762,0.0762 0.16933,0.1143 0.2794,0.1143 h 3.7084 c 0.11007,0 0.2032,0.0381 0.2794,0.1143 0.0762,0.0762 0.1143,0.169333 0.1143,0.2794 v 0.8255 c 0,0.110067 -0.0381,0.2032 -0.1143,0.2794 -0.0762,0.0762 -0.16933,0.1143 -0.2794,0.1143 h -3.7084 c -0.11007,0 -0.2032,0.0381 -0.2794,0.1143 -0.0762,0.0762 -0.1143,0.169333 -0.1143,0.2794 v 1.396999 c 0,0.110067 0.0381,0.2032 0.1143,0.2794 0.0762,0.0762 0.16933,0.1143 0.2794,0.1143 h 4.2799 c 0.11007,0 0.2032,0.0381 0.2794,0.1143 0.0762,0.0762 0.1143,0.169333 0.1143,0.2794 v 0.8128 c 0,0.110067 -0.0381,0.2032 -0.1143,0.2794 -0.0762,0.0762 -0.16933,0.1143 -0.2794,0.1143 h -6.0579 c -0.11007,0 -0.2032,-0.0381 -0.2794,-0.1143 -0.0762,-0.0762 -0.1143,-0.169333 -0.1143,-0.2794 v -8.508999 c 0,-0.110067 0.0381,-0.2032 0.1143,-0.2794 0.0762,-0.0762 0.16933,-0.1143 0.2794,-0.1143 h 6.0579 c 0.11007,0 0.2032,0.0381 0.2794,0.1143 0.0762,0.0762 0.1143,0.169333 0.1143,0.2794 v 0.7874 c 0,0.110067 -0.0381,0.2032 -0.1143,0.2794 -0.0762,0.0762 -0.16933,0.1143 -0.2794,0.1143 h -4.2799 c -0.11007,0 -0.2032,0.0381 -0.2794,0.1143 -0.0762,0.0762 -0.1143,0.169333 -0.1143,0.2794 z"
       id="path8-2" />
    <path
       style="font-size:12.7px;line-height:0.8;font-family:'Geometos Rounded';-inkscape-font-specification:'Geometos Rounded';text-align:end;letter-spacing:0px;word-spacing:0px;text-anchor:end;fill:#006ff2;fill-opacity:1;stroke:#000000;stroke-width:0;stroke-dasharray:none"
       d="m 155.2312,88.903847 v 4.737099 c 0,0.110067 -0.0381,0.2032 -0.1143,0.2794 -0.0762,0.0762 -0.16933,0.1143 -0.2794,0.1143 h -1.0033 c -0.1016,0 -0.1905,-0.0381 -0.2667,-0.1143 -0.0762,-0.0762 -0.1143,-0.169333 -0.1143,-0.2794 v -8.686798 c 0,-0.110067 0.0508,-0.173568 0.1524,-0.1905 0.11007,-0.0254 0.2032,-0.0042 0.2794,0.0635 l 5.5753,5.2705 c 0.0847,0.0762 0.1524,0.1016 0.2032,0.0762 0.0593,-0.0254 0.0889,-0.09313 0.0889,-0.2032 v -4.826 c 0,-0.110067 0.0381,-0.2032 0.1143,-0.2794 0.0762,-0.0762 0.16933,-0.1143 0.2794,-0.1143 h 0.9906 c 0.11007,0 0.2032,0.0381 0.2794,0.1143 0.0762,0.0762 0.1143,0.169333 0.1143,0.2794 v 8.674099 c 0,0.110067 -0.055,0.1778 -0.1651,0.2032 -0.1016,0.01693 -0.19473,-0.0085 -0.2794,-0.0762 l -5.5626,-5.181599 c -0.0847,-0.06773 -0.15663,-0.0889 -0.2159,-0.0635 -0.0508,0.0254 -0.0762,0.09313 -0.0762,0.203199 z"
       id="path7-2" />
    <path
       style="font-size:12.7px;line-height:0.8;font-family:'Geometos Rounded';-inkscape-font-specification:'Geometos Rounded';text-align:end;letter-spacing:0px;word-spacing:0px;text-anchor:end;fill:#006ff2;fill-opacity:1;stroke:#000000;stroke-width:0;stroke-dasharray:none"
       d="m 145.1601,92.929746 -0.3683,0.7493 c -0.0508,0.101601 -0.13123,0.186267 -0.2413,0.254001 -0.1016,0.06773 -0.20743,0.1016 -0.3175,0.1016 h -0.57785 -0.57785 c -0.11007,0 -0.18627,-0.03387 -0.2286,-0.1016 -0.0339,-0.06773 -0.0296,-0.148167 0.0127,-0.2413 l 4.4069,-8.8011 c 0.0508,-0.1016 0.13547,-0.1524 0.254,-0.1524 0.11853,0 0.2032,0.0508 0.254,0.1524 l 4.4069,8.801099 c 0.0508,0.09313 0.055,0.173567 0.0127,0.2413 -0.0339,0.06773 -0.10583,0.1016 -0.2159,0.1016 h -0.57785 -0.57785 c -0.11007,0 -0.22013,-0.03387 -0.3302,-0.1016 -0.11007,-0.06773 -0.18627,-0.1524 -0.2286,-0.254 l -0.381,-0.762 m 0,0 -2.1971,-4.343399 c -0.0423,-0.1016 -0.0974,-0.1524 -0.1651,-0.1524 -0.0677,0 -0.12277,0.0508 -0.1651,0.1524 l -2.1971,4.356099"
       id="path6-1" />
    <path
       style="font-size:12.7px;line-height:0.8;font-family:'Geometos Rounded';-inkscape-font-specification:'Geometos Rounded';text-align:end;letter-spacing:0px;word-spacing:0px;text-anchor:end;fill:#006ff2;fill-opacity:1;stroke:#000000;stroke-width:0;stroke-dasharray:none"
       d="m 141.7438,84.954147 v 8.686799 c 0,0.110067 -0.0381,0.2032 -0.1143,0.2794 -0.0762,0.0762 -0.1651,0.1143 -0.2667,0.1143 h -1.0033 c -0.11007,0 -0.2032,-0.0381 -0.2794,-0.1143 -0.0762,-0.0762 -0.1143,-0.169333 -0.1143,-0.2794 v -3.911599 c 0,-0.110067 -0.0254,-0.173567 -0.0762,-0.1905 -0.0423,-0.0254 -0.0974,0.0085 -0.1651,0.1016 l -2.413,2.882899 c -0.0677,0.08467 -0.1524,0.127 -0.254,0.127 -0.0931,0 -0.17357,-0.04233 -0.2413,-0.127 l -2.4003,-2.882899 c -0.0677,-0.08467 -0.127,-0.118533 -0.1778,-0.1016 -0.0508,0.01693 -0.0762,0.08043 -0.0762,0.1905 v 3.911599 c 0,0.110067 -0.0381,0.2032 -0.1143,0.2794 -0.0762,0.0762 -0.16933,0.1143 -0.2794,0.1143 h -0.9906 c -0.11007,0 -0.2032,-0.0381 -0.2794,-0.1143 -0.0762,-0.0762 -0.1143,-0.169333 -0.1143,-0.2794 v -8.686799 c 0,-0.110067 0.0508,-0.173567 0.1524,-0.1905 0.1016,-0.01693 0.18627,0.01693 0.254,0.1016 l 4.0132,4.953 c 0.0677,0.0762 0.1524,0.1143 0.254,0.1143 0.1016,0 0.18627,-0.0381 0.254,-0.1143 l 4.0259,-4.953 c 0.0677,-0.08467 0.1524,-0.118533 0.254,-0.1016 0.1016,0.01693 0.1524,0.08043 0.1524,0.1905 z"
       id="path5-6" />
    <path
       style="font-size:12.7px;line-height:0.8;font-family:'Geometos Rounded';-inkscape-font-specification:'Geometos Rounded';text-align:end;letter-spacing:0px;word-spacing:0px;text-anchor:end;fill:#006ff2;fill-opacity:1;stroke:#000000;stroke-width:0;stroke-dasharray:none"
       d="m 121.7921,93.691746 4.4069,-8.801099 c 0.0508,-0.1016 0.13547,-0.1524 0.254,-0.1524 0.11853,0 0.2032,0.0508 0.254,0.1524 l 4.4069,8.801099 c 0.0508,0.09313 0.055,0.173567 0.0127,0.2413 -0.0339,0.06773 -0.10583,0.1016 -0.2159,0.1016 h -1.1557 c -0.11007,0 -0.22013,-0.03387 -0.3302,-0.1016 -0.11007,-0.06773 -0.18627,-0.1524 -0.2286,-0.254 l -0.381,-0.762 c -0.0508,-0.09313 -0.13123,-0.173567 -0.2413,-0.2413 -0.1016,-0.06773 -0.20743,-0.1016 -0.3175,-0.1016 h -3.6068 c -0.11007,0 -0.22013,0.03387 -0.3302,0.1016 -0.11007,0.06773 -0.18627,0.1524 -0.2286,0.254 l -0.3683,0.7493 c -0.0508,0.101601 -0.13123,0.186267 -0.2413,0.254001 -0.1016,0.06773 -0.20743,0.1016 -0.3175,0.1016 h -1.1557 c -0.11007,0 -0.18627,-0.03387 -0.2286,-0.1016 -0.0339,-0.06773 -0.0296,-0.148167 0.0127,-0.241301 z m 3.7211,-2.666999 h 1.8796 c 0.11007,0 0.18203,-0.03387 0.2159,-0.1016 0.0423,-0.0762 0.0423,-0.160867 0,-0.254 l -0.9906,-2.0955 c -0.0423,-0.1016 -0.0974,-0.1524 -0.1651,-0.1524 -0.0677,0 -0.12277,0.0508 -0.1651,0.1524 l -1.0033,2.0955 c -0.0423,0.1016 -0.0423,0.186267 0,0.254 0.0423,0.06773 0.11853,0.1016 0.2286,0.1016 z"
       id="text4-8-8" />
    <path
       style="fill:#1a1a1a;fill-opacity:1;stroke:#000000;stroke-width:0;stroke-dasharray:none;stroke-opacity:1"
       d="m 143.6546,94.442637 7.93565,0.023"
       id="path4-5" />
    <path
       style="fill:#02ca69;fill-opacity:1;stroke:none;stroke-width:2.81801;stroke-dasharray:none;stroke-opacity:1"
       d="m 147.7155,51.797032 c 0.0119,-0.322446 0.0367,-0.699695 0.0869,-1.044877 0.0629,-0.43222 0.34641,-1.100943 0.65879,-1.404947 0.7101,-0.691073 1.87523,-1.081161 2.64488,-1.275909 0.42377,-0.107228 0.74556,0.192094 0.68271,0.625874 -0.0993,0.685675 -0.29233,1.686899 -0.63993,2.454219 -0.18017,0.39771 -0.65151,0.957837 -1.04879,1.134054 -0.50449,0.223771 -1.12014,0.29836 -1.60055,0.317898 -0.43699,0.01777 -0.79185,-0.01266 -0.79192,-0.01266 z"
       id="path10-7"
       transform="matrix(0.8508578,-0.02746506,0.02821804,0.87418505,20.378943,41.68923)" />
  </g>
</svg>
